<svg id="Layer_1" data-name="Layer 1" xmlns="http://www.w3.org/2000/svg" viewBox="0 0 568.11 175.7"><defs><style>.cls-1{stroke:#fff;stroke-miterlimit:10;}</style></defs><title>logo-fonyou-black</title><path class="cls-1" d="M79,5.7a4.15,4.15,0,0,1,1.1,2.2,18.52,18.52,0,0,1,.1,2.5c-.1.8-.3,1.5-.4,2.2a13.12,13.12,0,0,1-1,3.1,17.55,17.55,0,0,1-2.6,4.6c-2.1,1.1-4,1.4-5.8.7a5.11,5.11,0,0,0-2.2-.7,24.5,24.5,0,0,0-4.2-.7c-1.5-.1-3.1-.3-4.4-.3a21.52,21.52,0,0,0-6.8,1,13.91,13.91,0,0,0-6,3.8,19.25,19.25,0,0,0-4.3,7.5,39.14,39.14,0,0,0-1.9,12c-.1,2.4-.3,4.7-.3,6.8v7.4H50.7c2.8,0,5.7,0,8.9-.1a49.34,49.34,0,0,0,6.9-.4,70.08,70.08,0,0,1-.7,7.9,17.08,17.08,0,0,1-1.3,5A7.64,7.64,0,0,1,62.6,73a9.25,9.25,0,0,1-2.9,1.7l.3-.3c-.3.1-.8.4-1.4.6a11.32,11.32,0,0,0-1.4.6,57.2,57.2,0,0,1-7.6.4H40V97.8c0,7.8,0,15.7.1,23.6s.1,15.7.3,23.2.1,14.5.1,20.7a13.76,13.76,0,0,1-.4,3.1,3.21,3.21,0,0,1-2.5,2.5c-2.6.4-5.3.8-8.3,1s-5.1.3-6.7.3a52.56,52.56,0,0,1-7.8-.7,21.64,21.64,0,0,1-.3-2.9V150.8c0-2.2,0-4.6.1-7.1s.1-5,.1-7.6V106.9c0-5.3,0-10.4-.1-15.3V76.3C7.8,75.7,3,74.3-.1,72.1c.3-2.4.7-4.3,1-5.8A7.17,7.17,0,0,1,2.3,63a7.56,7.56,0,0,1,2.1-1.9,29.39,29.39,0,0,1,3.2-1.3,10.42,10.42,0,0,1,2.8-.7,21.45,21.45,0,0,0,4.4-1c0-3.2.1-6.3.3-9.2s.4-5.6.7-8.2V41c.7-8.2,2.5-14.9,5.4-20.2A37.33,37.33,0,0,1,31.9,8.4,44.26,44.26,0,0,1,45.5,2.1,53.62,53.62,0,0,1,59.4.3,48.21,48.21,0,0,1,72.2,1.8,23,23,0,0,1,79,5.4h0Z" transform="translate(0.63 0.2)"/><path class="cls-1" d="M163.9,113.7a93.24,93.24,0,0,1-3.6,26.7,56.48,56.48,0,0,1-10.1,19.2,41.53,41.53,0,0,1-15.3,11.5,48.06,48.06,0,0,1-19.2,3.9c-15.4,0-27.4-4.7-35.7-14.2s-12.5-24.6-12.5-45.7a94.4,94.4,0,0,1,3.6-27A53.18,53.18,0,0,1,81.2,69.2,41.09,41.09,0,0,1,96.6,58.1a52.33,52.33,0,0,1,19.7-3.6c16,0,27.8,5,35.7,15S163.9,94.2,163.9,113.7Zm-69.6.5A105.44,105.44,0,0,0,96,134.5c1.1,5.4,2.6,9.9,4.6,13.2a18.29,18.29,0,0,0,6.8,7.2,18.51,18.51,0,0,0,8.8,2.2,16,16,0,0,0,8.2-2.2,19,19,0,0,0,6.8-7.2,44.92,44.92,0,0,0,4.6-13.2,102.87,102.87,0,0,0,1.7-20.2c0-15.1-1.9-25.8-5.8-32.1s-9.2-9.4-16-9.4a16.78,16.78,0,0,0-8.2,2.2,19.42,19.42,0,0,0-6.8,7.1A44.74,44.74,0,0,0,96,94.9,89.8,89.8,0,0,0,94.3,114.2Z" transform="translate(0.63 0.2)"/><path class="cls-1" d="M225.9,74.6a19.85,19.85,0,0,0-10.4,2.6,28.81,28.81,0,0,0-8.3,6.8l.7-.7v74.3a37.26,37.26,0,0,1-.4,6.5,12,12,0,0,1-2.4,5,7.41,7.41,0,0,1-2.5,1.7,16.47,16.47,0,0,1-3.2.8,26.49,26.49,0,0,1-4.4.4c-1.8.1-3.9.1-6.5.1h-6.3c.1-6.4.3-13.6.4-21.7s.1-16.7.1-25.8V84.2a72.69,72.69,0,0,0-.7-10.1,41.6,41.6,0,0,0-1.9-7.9c1.8-1.9,5.1-3.9,10.1-6a5.92,5.92,0,0,1,2.1-.4h1.4a9.05,9.05,0,0,1,5.4,1.4,9.94,9.94,0,0,1,3.2,3.6,42.68,42.68,0,0,1,7.2-4.3c2.4-1.1,4.7-2.1,6.9-2.9a70.34,70.34,0,0,1,7.6-1.9,49.89,49.89,0,0,1,8.1-.7c7.5,0,13.6,1,18.3,2.9a25.17,25.17,0,0,1,11,8.3,30.54,30.54,0,0,1,5.3,13.3,121.78,121.78,0,0,1,1.4,18.3v36.4c0,6.5,0,12.8.1,18.6s.1,11,.4,15.7a9.23,9.23,0,0,1-2.8,1.9,22.69,22.69,0,0,1-4.2,1.1c-1.8.3-3.9.4-6.5.6s-6,.3-10,.3a22.11,22.11,0,0,1-2.6-10.8V98.2c0-8.6-1.3-14.7-3.6-18.3C236.3,76.4,232,74.6,225.9,74.6Z" transform="translate(0.63 0.2)"/><path class="cls-1" d="M353.4,13.3a26.27,26.27,0,0,1,4.9-1.4,24.28,24.28,0,0,1,4.9-.4c1,0,2.5.1,4.6.3s5,.4,8.6.7a6.62,6.62,0,0,1,.6,2.2,10.62,10.62,0,0,1,.1,1.5,12.72,12.72,0,0,1-.7,3.8c-.4,1.3-1.1,2.6-1.7,4.2l-.3.3c.1,0,.1.1.1.4s-.1.4-.4.6c-1.8,4.2-4.4,9.6-8.1,16.3S358.8,55.1,355,62c-3.2,5.7-6.3,11.1-9.2,16.5s-5,9.7-6.5,13.2a55.18,55.18,0,0,0-1.8,5.3c-.5,1.8-1,3.8-1.4,6v34.7c0,3.9,0,7.4.1,10.6s.1,6.3.1,8.9v11.1a23.21,23.21,0,0,1-2.5,2.1,11.49,11.49,0,0,1-3.9,1.4,36.22,36.22,0,0,1-6.7.7c-2.8.1-6.3.3-10.6.3a29,29,0,0,1-2.4-11.8V101.9a6.65,6.65,0,0,0-.3-2.1c-1.3-3.2-3.1-7.2-5.1-12-2.2-4.7-4.7-9.9-7.6-15.3-2.1-4.3-4.3-8.8-6.8-13.3s-4.9-9.2-7.2-13.9c-2.6-5-5.1-10-7.8-15s-5-9.9-7.2-14.5c0-1.1.8-1.9,2.4-2.2s5.3-.6,11.1-.6h14q1.95,4.8,6,13.8c2.8,6,5.6,12.1,8.5,18.3,3.2,7.8,6,14.2,8.5,19.5s4.3,9.2,5.6,12Z" transform="translate(0.63 0.2)"/><path class="cls-1" d="M460.4,113.7a93.24,93.24,0,0,1-3.6,26.7,56.48,56.48,0,0,1-10.1,19.2,41.53,41.53,0,0,1-15.3,11.5,48.06,48.06,0,0,1-19.2,3.9c-15.4,0-27.4-4.7-35.7-14.2S364,136.2,364,115.1a94.4,94.4,0,0,1,3.6-27,50.86,50.86,0,0,1,10.1-18.9,40.31,40.31,0,0,1,15.4-11.1,52.33,52.33,0,0,1,19.7-3.6c16,0,27.8,5,35.7,15S460.4,94.2,460.4,113.7Zm-69.7.5a105.44,105.44,0,0,0,1.7,20.3c1.1,5.4,2.6,9.9,4.6,13.2a18.29,18.29,0,0,0,6.8,7.2,18.51,18.51,0,0,0,8.8,2.2,16,16,0,0,0,8.2-2.2,19,19,0,0,0,6.8-7.2,44.92,44.92,0,0,0,4.6-13.2,102.87,102.87,0,0,0,1.7-20.2c0-15.1-1.9-25.8-5.8-32.1s-9.2-9.4-16-9.4a16.78,16.78,0,0,0-8.2,2.2,19.42,19.42,0,0,0-6.8,7.1,44.74,44.74,0,0,0-4.7,12.8A91.68,91.68,0,0,0,390.7,114.2Z" transform="translate(0.63 0.2)"/><path class="cls-1" d="M504.6,63.1a71.06,71.06,0,0,1,1.9,9,122.8,122.8,0,0,1,.7,14.2l-2.4,43.4a60.2,60.2,0,0,0,1.1,12.5,19.8,19.8,0,0,0,3.2,7.6,11.37,11.37,0,0,0,5,3.8,19.68,19.68,0,0,0,6.7,1,20.14,20.14,0,0,0,10.4-1.8,21.64,21.64,0,0,0,7.8-5.7V71.8a40.61,40.61,0,0,1,.4-6.7,11.5,11.5,0,0,1,2.4-5,11,11,0,0,1,5.6-2.5c2.1-.3,5.8-.4,11.1-.6h6.3c-.1,6.4-.3,13.6-.4,21.7s-.1,16.7-.1,25.8v40.6a72.69,72.69,0,0,0,.7,10.1,41.6,41.6,0,0,0,1.9,7.9c-1.8,1.8-5.1,3.8-10.1,6a5.92,5.92,0,0,1-2.1.4h-1.4a8.95,8.95,0,0,1-8.6-5.3,51.64,51.64,0,0,1-7.2,4.4,67.39,67.39,0,0,1-6.9,3.1,76.71,76.71,0,0,1-7.6,1.9,49.89,49.89,0,0,1-8.1.7c-7.4-.3-13.3-1.4-17.9-3.3a24.22,24.22,0,0,1-10.7-8.2A31.51,31.51,0,0,1,481,150a106.77,106.77,0,0,1-1.7-17.4l2.2-49.8a81.07,81.07,0,0,0-.8-11.8c-.6-3.3-1.4-6.5-2.2-9.4,1-.8,2.4-1.8,4.3-3.1a57.71,57.71,0,0,1,7.8-4.2,7.87,7.87,0,0,1,2.2-.4h1.3c3.3,0,6,1,7.6,2.9A15,15,0,0,1,504.6,63.1Z" transform="translate(0.63 0.2)"/></svg>